<?xml version="1.0" encoding="UTF-8" standalone="no" ?>
<!DOCTYPE svg PUBLIC "-//W3C//DTD SVG 1.1//EN" "http://www.w3.org/Graphics/SVG/1.1/DTD/svg11.dtd">
<svg xmlns="http://www.w3.org/2000/svg" xmlns:xlink="http://www.w3.org/1999/xlink" version="1.1" width="1080" height="1080" viewBox="0 0 1080 1080" xml:space="preserve">
<desc>Created with Fabric.js 5.2.4</desc>
<defs>
</defs>
<g transform="matrix(1 0 0 1 540 540)" id="5b3b2b1e-21e8-412d-b0b8-c0e09fd5d5f0"  >
</g>
<g transform="matrix(1 0 0 1 540 540)" id="af1e07ee-bb93-4d99-8672-19240def7dc7"  >
<rect style="stroke: none; stroke-width: 0; stroke-dasharray: none; stroke-linecap: butt; stroke-dashoffset: 0; stroke-linejoin: miter; stroke-miterlimit: 4; opacity: 1; visibility: hidden;" vector-effect="non-scaling-stroke"  x="-540" y="-540" rx="0" ry="0" width="1080" height="1080" />
</g>
<g transform="matrix(1.4 0 0 1.4 539.94 253.43)"  >
<path style="stroke: none; stroke-width: 1; stroke-dasharray: none; stroke-linecap: butt; stroke-dashoffset: 0; stroke-linejoin: miter; stroke-miterlimit: 4; opacity: 1;" vector-effect="non-scaling-stroke"  transform=" translate(-360.94, -148.63)" d="M 361.666687 1 C 378.394379 9.338993 394.742859 17.769712 411.190918 26.001442 C 491.401245 66.144127 571.63855 106.232933 651.86322 146.347015 C 653.474487 147.15271 655.048035 148.033783 657.264648 149.212204 C 655.236938 150.282333 653.760193 151.098526 652.252197 151.852264 C 556.565979 199.678436 460.884735 247.514694 365.137512 295.218414 C 363.106018 296.23056 359.81897 296.697723 357.942566 295.763062 C 260.853058 247.400146 163.853027 198.857559 66.844337 150.332382 C 66.321899 150.07106 65.81118 149.786331 64.615395 149.152084 C 163.368057 99.783257 261.547333 50.70108 359.863312 1.309455 C 360.444458 1 360.888885 1 361.666687 1 z" stroke-linecap="round" />
</g>
<g transform="matrix(1.4 0 0 1.4 789.84 679.79)"  >
<path style="stroke: none; stroke-width: 1; stroke-dasharray: none; stroke-linecap: butt; stroke-dashoffset: 0; stroke-linejoin: miter; stroke-miterlimit: 4; opacity: 1;" vector-effect="non-scaling-stroke"  transform=" translate(-539.6, -453.46)" d="M 441.689758 680.717896 C 424.755951 689.172913 408.151764 697.450562 390.999603 706.001343 C 390.999603 703.760559 390.999603 702.149902 390.999603 700.539307 C 390.999603 585.239197 391.024841 469.939026 390.891663 354.639069 C 390.887115 350.719543 392.100128 348.870636 395.502899 347.17218 C 491.21283 299.400574 586.868958 251.521225 682.535828 203.66333 C 684.270813 202.79538 686.028992 201.97374 688.229065 200.912079 C 688.229065 203.293015 688.229065 205.1026 688.229065 206.912201 C 688.229065 321.879089 688.209106 436.846008 688.313538 551.812805 C 688.317139 555.759583 687.295593 557.912109 683.594421 559.757446 C 603.024536 599.928467 522.529053 640.24884 441.689758 680.717896 M 539.44812 604.832275 C 542.725525 609.559143 545.776367 610.099304 549.208435 605.722168 C 551.4729 602.834167 553.662903 599.131226 553.983704 595.619385 C 554.904175 585.543579 555.214844 575.373047 555.041382 565.252197 C 554.950989 559.977295 556.185425 556.619446 560.801025 553.505798 C 567.94635 548.685425 574.348083 542.762939 581.455444 536.990723 C 584.79248 544.906372 588.017639 552.669067 591.337158 560.391235 C 593.571289 565.588562 597.993286 566.447266 601.329346 562.036804 C 606.753052 554.866516 608.758423 546.879639 605.292725 538.161865 C 602.901611 532.1474 600.20575 526.250916 597.949219 520.188782 C 597.437439 518.813782 597.655762 516.648193 598.427979 515.394897 C 605.602356 503.75116 612.971497 492.227417 620.36084 480.547638 C 622.931152 483.990875 625.774841 487.831238 628.652039 491.646332 C 631.726074 495.722443 634.505554 495.931976 637.922668 492.073273 C 642.369568 487.051636 643.307434 480.922943 643.283142 474.434082 C 643.256836 467.363251 638.120178 463.118652 634.491943 458.133118 C 632.44397 455.319 632.41687 453.192505 633.611511 450.109863 C 639.052551 436.069824 644.519775 422.025391 649.371155 407.776123 C 653.112488 396.787567 656.082275 385.527405 659.125305 374.314819 C 660.218445 370.287109 661.326294 365.961792 660.906006 361.930939 C 660.625427 359.239594 658.136719 355.818237 655.713623 354.669189 C 654.250305 353.97525 650.024902 356.414886 648.800293 358.486725 C 646.48407 362.405396 645.112305 366.986481 643.911743 371.444122 C 633.198914 411.221283 619.229431 449.654907 596.881042 484.558105 C 582.90918 506.379028 566.403503 525.597168 541.361084 535.440491 C 524.923523 541.901489 509.425598 540.180847 495.026337 530.004456 C 482.394531 521.077271 473.018005 509.128967 466.340576 495.426849 C 460.340454 483.114624 455.901001 470.04892 450.465454 457.448273 C 449.407532 454.995789 447.147827 451.7388 445.055176 451.423523 C 442.915466 451.101227 439.584686 453.407318 438.028442 455.496368 C 433.663879 461.355225 432.456879 468.399719 434.357635 475.326935 C 439.877502 495.443909 448.046265 514.455139 459.871643 531.745178 C 461.344543 533.898743 461.715424 535.515381 460.478516 537.964417 C 457.409302 544.04126 454.464355 550.207092 451.951477 556.528748 C 450.504211 560.169617 449.530731 564.141724 449.183594 568.039551 C 448.777405 572.600342 448.301392 577.83374 454.110138 579.783813 C 457.699951 580.989014 461.119598 577.785339 464.130127 571.135742 C 467.381226 563.954834 470.635223 556.775146 473.681213 550.051331 C 481.485443 555.505066 489.036194 560.781616 496.759308 566.17865 C 493.563232 576.41095 489.759369 587.245483 486.929688 598.328735 C 485.841858 602.5896 486.292755 607.570923 487.282745 611.943115 C 488.286438 616.375732 492.730225 617.396729 495.672821 613.942322 C 498.374207 610.771057 500.520844 606.850708 501.930573 602.909424 C 505.595032 592.664429 508.669373 582.209412 512.132568 571.889648 C 512.513 570.75592 513.801941 569.240356 514.818237 569.115784 C 522.643005 568.15686 530.504517 567.497803 539.07959 566.676208 C 539.07959 578.860352 539.07959 591.466675 539.44812 604.832275 z" stroke-linecap="round" />
</g>
<g transform="matrix(1.4 0 0 1.4 290.21 679.89)"  >
<path style="stroke: none; stroke-width: 1; stroke-dasharray: none; stroke-linecap: butt; stroke-dashoffset: 0; stroke-linejoin: miter; stroke-miterlimit: 4; opacity: 1;" vector-effect="non-scaling-stroke"  transform=" translate(-182.4, -453.52)" d="M 33.769287 311.999847 C 33.769283 274.842896 33.769283 238.185989 33.769283 201.025787 C 35.745472 201.909332 37.383476 202.568039 38.956932 203.355682 C 134.929611 251.398285 230.893112 299.459198 326.884796 347.463837 C 329.582062 348.812714 331.148865 350.027313 331.144775 353.607208 C 331.01178 469.766602 331.035095 585.926208 331.035095 702.085754 C 331.035095 703.189697 331.035095 704.293579 331.035095 706.022278 C 320.987823 701.015564 311.506042 696.306641 302.038147 691.570007 C 214.223373 647.637268 126.419533 603.682739 38.566563 559.826538 C 35.057571 558.074829 33.649609 556.124878 33.65744 551.988037 C 33.808472 472.158844 33.769287 392.329315 33.769287 311.999847 M 87.284744 374.893829 C 92.072525 367.568756 96.627884 360.077759 101.708252 352.961578 C 107.758011 344.487549 107.987991 335.97113 101.750244 327.510803 C 98.250969 322.764709 94.5205 322.471619 90.830315 327.061646 C 87.612892 331.06366 84.601059 335.272797 81.896858 339.637299 C 75.003387 350.763214 68.046921 362.062073 65.936798 375.168945 C 62.405453 397.103638 63.963295 419.089905 69.987579 440.316071 C 77.173531 465.635345 88.777168 489.293396 101.620003 512.205994 C 117.685593 540.868164 136.713486 567.195312 164.83136 585.508301 C 179.75946 595.230835 195.893356 601.127136 214.110382 599.935425 C 227.300034 599.072571 239.083527 594.310303 249.339142 586.382874 C 265.105072 574.196045 279.532257 560.354553 284.987183 540.45929 C 290.320099 521.009216 291.086853 500.758423 286.809143 481.099152 C 283.423431 465.539154 277.755157 450.386475 272.109833 435.426727 C 261.502747 407.318695 247.729645 380.773682 229.764435 356.593292 C 215.494614 337.38678 198.946014 320.563354 177.375061 309.423981 C 165.228775 303.15152 152.414124 299.406769 138.594254 300.28067 C 136.630066 300.404877 134.112549 301.136902 132.922379 302.513641 C 127.929047 308.289764 131.569473 325.095978 138.365921 328.462006 C 139.645599 329.095764 141.273804 329.364349 142.712952 329.285583 C 158.146225 328.441071 171.693573 333.80835 184.209473 342.128204 C 209.214615 358.750183 226.346603 382.290863 239.629349 408.503784 C 249.379272 427.744843 257.46405 447.868774 265.571899 467.890411 C 272.0242 483.82373 272.20459 500.675262 270.160797 517.551331 C 268.544922 530.893799 260.844269 541.031494 252.229187 550.562683 C 241.954391 561.929993 230.268005 571.255798 214.870529 574.758789 C 194.973068 579.285583 177.966721 572.002747 162.151291 561.160217 C 143.628265 548.461426 130.152496 531.031494 118.315933 512.242859 C 105.238312 491.48407 94.574852 469.437439 86.504478 446.37323 C 78.331924 423.017059 74.687614 399.075684 87.284744 374.893829 M 135.124802 457.158844 C 138.725876 467.558044 141.554993 478.312256 146.131454 488.262848 C 151.369217 499.651428 159.258911 509.31778 170.330566 515.960815 C 180.663223 522.1604 192.566986 521.325439 200.428345 512.987488 C 206.009583 507.067932 208.799713 499.567749 210.160385 491.55069 C 213.455948 472.133179 210.89151 453.344025 203.805939 435.145081 C 198.769485 422.20929 191.68866 410.559692 180.973602 401.373535 C 170.184067 392.123535 158.347534 389.964813 148.603668 396.351044 C 140.339325 401.767609 136.87616 410.491119 134.921631 419.703247 C 132.34166 431.863159 132.868561 444.118927 135.124802 457.158844 z" stroke-linecap="round" />
</g>
<g transform="matrix(1.4 0 0 1.4 275.72 685.21)"  >
</g>
</svg>